<svg xmlns="http://www.w3.org/2000/svg" width="100.001" height="100.001" viewBox="0 0 100.001 100.001">
  <g id="focus" transform="translate(0)">
    <path id="Path_390" data-name="Path 390" d="M113.091,148.848l.938-1.53-.938-1.531a56.349,56.349,0,0,0-11.257-12.445,51.531,51.531,0,0,0-33.207-12.4,51.873,51.873,0,0,0-33.287,12.4A56.893,56.893,0,0,0,24,145.773l-.957,1.544L24,148.861A56.893,56.893,0,0,0,35.34,161.3a51.873,51.873,0,0,0,33.287,12.4,51.531,51.531,0,0,0,33.206-12.4,56.322,56.322,0,0,0,11.257-12.446Zm-15.162,8.071c-8.768,7.245-18.627,10.918-29.3,10.918s-20.57-3.675-29.4-10.925a55.287,55.287,0,0,1-9.177-9.595,55.289,55.289,0,0,1,9.177-9.6c8.827-7.249,18.717-10.925,29.4-10.925s20.533,3.674,29.3,10.918a54.566,54.566,0,0,1,9.109,9.6A54.578,54.578,0,0,1,97.929,156.919Zm0,0" transform="translate(-18.539 -97.317)"/>
    <path id="Path_391" data-name="Path 391" d="M183.471,165.867a17.6,17.6,0,1,0,17.6,17.6A17.624,17.624,0,0,0,183.471,165.867Zm0,29.349a11.745,11.745,0,1,1,11.745-11.745A11.758,11.758,0,0,1,183.471,195.216Zm0,0" transform="translate(-133.471 -133.471)"/>
    <path id="Path_392" data-name="Path 392" d="M5.859,5.859H18.091V0H0V17.871H5.859Zm0,0"/>
    <path id="Path_393" data-name="Path 393" d="M419.375,0V5.859h12.232V17.871h5.859V0Zm0,0" transform="translate(-337.465)"/>
    <path id="Path_394" data-name="Path 394" d="M5.859,420.5H0v17.871H18.091v-5.859H5.859Zm0,0" transform="translate(0 -338.371)"/>
    <path id="Path_395" data-name="Path 395" d="M431.607,432.512H419.375v5.859h18.091V420.5h-5.859Zm0,0" transform="translate(-337.465 -338.371)"/>
  </g>
</svg>
