<svg xmlns="http://www.w3.org/2000/svg" width="35" height="35" viewBox="0 0 35 35">
  <g id="email_1_" data-name="email (1)" transform="translate(-0.001)">
    <g id="Group_6290" data-name="Group 6290" transform="translate(0.001)">
      <path id="Path_380" data-name="Path 380" d="M17.5,0A17.5,17.5,0,1,0,35,17.5,17.5,17.5,0,0,0,17.5,0Zm0,6.147L27.857,12.6H7.145Zm10.485,16.77h0a1.875,1.875,0,0,1-1.875,1.875H8.892a1.875,1.875,0,0,1-1.875-1.875v-9.9a1.865,1.865,0,0,1,.029-.321l9.894,6.17c.012.008.025.013.038.02l.04.021a1.039,1.039,0,0,0,.215.084l.023,0a1.067,1.067,0,0,0,.244.031h0a1.048,1.048,0,0,0,.244-.031l.023,0a1.049,1.049,0,0,0,.215-.084l.04-.021c.012-.007.025-.012.038-.02l9.894-6.17a1.863,1.863,0,0,1,.029.321v9.9Z" transform="translate(-0.001)" fill="#00aee0"/>
    </g>
  </g>
</svg>
