<svg xmlns="http://www.w3.org/2000/svg" xmlns:xlink="http://www.w3.org/1999/xlink" width="50" height="50" viewBox="0 0 50 50">
  <defs>
    <clipPath id="clip-path">
      <circle id="Ellipse_3" data-name="Ellipse 3" cx="25" cy="25" r="25" transform="translate(1555 4416)" fill="#00aee0"/>
    </clipPath>
  </defs>
  <g id="Mask_Group_2" data-name="Mask Group 2" transform="translate(-1555 -4416)" clip-path="url(#clip-path)">
    <g id="instagram_3_" data-name="instagram (3)" transform="translate(1555 4416)">
      <path id="Path_5" data-name="Path 5" d="M29.785,25A4.785,4.785,0,1,1,25,20.215,4.785,4.785,0,0,1,29.785,25Zm0,0" fill="#00aee0"/>
      <path id="Path_6" data-name="Path 6" d="M36.191,16.534a4.754,4.754,0,0,0-2.724-2.724,7.943,7.943,0,0,0-2.665-.494c-1.514-.069-1.968-.084-5.8-.084s-4.287.014-5.8.084a7.948,7.948,0,0,0-2.665.494,4.756,4.756,0,0,0-2.725,2.724,7.945,7.945,0,0,0-.494,2.666c-.069,1.514-.084,1.968-.084,5.8s.015,4.287.084,5.8a7.943,7.943,0,0,0,.494,2.665,4.754,4.754,0,0,0,2.724,2.724,7.933,7.933,0,0,0,2.666.494c1.514.069,1.967.084,5.8.084s4.288-.014,5.8-.084a7.933,7.933,0,0,0,2.666-.494,4.754,4.754,0,0,0,2.724-2.724,7.95,7.95,0,0,0,.494-2.665c.069-1.514.084-1.968.084-5.8s-.014-4.287-.084-5.8A7.933,7.933,0,0,0,36.191,16.534ZM25,32.372A7.372,7.372,0,1,1,32.372,25,7.372,7.372,0,0,1,25,32.372ZM32.663,19.06a1.723,1.723,0,1,1,1.723-1.723A1.723,1.723,0,0,1,32.663,19.06Zm0,0" fill="#00aee0"/>
      <path id="Path_7" data-name="Path 7" d="M25,0A25,25,0,1,0,50,25,25,25,0,0,0,25,0ZM39.269,30.918A10.532,10.532,0,0,1,38.6,34.4a7.34,7.34,0,0,1-4.2,4.2,10.54,10.54,0,0,1-3.484.667c-1.531.07-2.02.087-5.919.087s-4.388-.017-5.919-.087A10.54,10.54,0,0,1,15.6,38.6a7.34,7.34,0,0,1-4.2-4.2,10.53,10.53,0,0,1-.667-3.484c-.071-1.531-.087-2.02-.087-5.919s.016-4.388.087-5.919A10.533,10.533,0,0,1,11.4,15.6a7.345,7.345,0,0,1,4.2-4.2,10.542,10.542,0,0,1,3.485-.667c1.531-.07,2.02-.087,5.919-.087s4.388.017,5.919.087A10.544,10.544,0,0,1,34.4,11.4a7.342,7.342,0,0,1,4.2,4.2,10.531,10.531,0,0,1,.668,3.485c.07,1.531.086,2.02.086,5.919S39.339,29.388,39.269,30.918Zm0,0" fill="#00aee0"/>
    </g>
  </g>
</svg>
