<svg xmlns="http://www.w3.org/2000/svg" width="35" height="35" viewBox="0 0 35 35">
  <g id="Group_6292" data-name="Group 6292" transform="translate(-683 -8672)">
    <circle id="Ellipse_30" data-name="Ellipse 30" cx="17.5" cy="17.5" r="17.5" transform="translate(683 8672)" fill="#00aee0"/>
    <g id="lock" transform="translate(629 8679)">
      <g id="Group_6291" data-name="Group 6291" transform="translate(64)">
        <path id="Path_381" data-name="Path 381" d="M79.556,8H78.222V6.222a6.222,6.222,0,1,0-12.444,0V8H64.444A.444.444,0,0,0,64,8.444V19.556a1.78,1.78,0,0,0,1.778,1.778H78.222A1.78,1.78,0,0,0,80,19.556V8.444A.444.444,0,0,0,79.556,8Zm-6.225,9.284a.445.445,0,0,1-.442.493H71.111a.445.445,0,0,1-.442-.493l.28-2.521a1.758,1.758,0,0,1-.727-1.43,1.778,1.778,0,0,1,3.556,0,1.758,1.758,0,0,1-.727,1.43ZM75.556,8H68.444V6.222a3.556,3.556,0,1,1,7.111,0Z" transform="translate(-64)" fill="#fff"/>
      </g>
    </g>
  </g>
</svg>
