<svg xmlns="http://www.w3.org/2000/svg" width="100.001" height="100" viewBox="0 0 100.001 100">
  <g id="Group_6311" data-name="Group 6311" transform="translate(-725.622 -1309)">
    <g id="Group_6308" data-name="Group 6308" transform="translate(740 1354.193)">
      <circle id="Ellipse_34" data-name="Ellipse 34" cx="7.228" cy="7.228" r="7.228" transform="translate(0 0.572)"/>
      <path id="Path_398" data-name="Path 398" d="M238.263,212.45H180.629a.232.232,0,0,0-.229.229v5.4a.232.232,0,0,0,.229.229h57.634a.232.232,0,0,0,.229-.229v-5.4A.22.22,0,0,0,238.263,212.45Z" transform="translate(-152.87 -212.45)"/>
      <path id="Path_399" data-name="Path 399" d="M180.629,269.5h27.234a.232.232,0,0,0,.229-.229v-5.4a.232.232,0,0,0-.229-.229H180.629a.232.232,0,0,0-.229.229v5.4A.263.263,0,0,0,180.629,269.5Z" transform="translate(-152.627 -253.885)"/>
    </g>
    <g id="Group_6309" data-name="Group 6309" transform="translate(725.621 1393.361)">
      <circle id="Ellipse_35" data-name="Ellipse 35" cx="7.266" cy="7.266" r="7.266" transform="translate(0 0.553)"/>
      <path id="Path_400" data-name="Path 400" d="M238.263,378.55H180.629a.232.232,0,0,0-.229.229v5.4a.232.232,0,0,0,.229.229h57.634a.232.232,0,0,0,.229-.229v-5.4A.22.22,0,0,0,238.263,378.55Z" transform="translate(-152.832 -378.55)"/>
      <path id="Path_401" data-name="Path 401" d="M207.863,429.85H180.629a.232.232,0,0,0-.229.229v5.4a.232.232,0,0,0,.229.229h27.234a.232.232,0,0,0,.229-.229v-5.4A.22.22,0,0,0,207.863,429.85Z" transform="translate(-152.589 -420.066)"/>
    </g>
    <g id="Group_6310" data-name="Group 6310" transform="translate(726.251 1309)">
      <path id="Path_396" data-name="Path 396" d="M238.263,46.25H180.629a.232.232,0,0,0-.229.229v5.4a.232.232,0,0,0,.229.229h57.634a.232.232,0,0,0,.229-.229v-5.4A.22.22,0,0,0,238.263,46.25Z" transform="translate(-146.462 -42.092)"/>
      <path id="Path_397" data-name="Path 397" d="M180.629,103.3h27.234a.232.232,0,0,0,.229-.229v-5.4a.232.232,0,0,0-.229-.229H180.629a.232.232,0,0,0-.229.229v5.4A.245.245,0,0,0,180.629,103.3Z" transform="translate(-146.243 -83.528)"/>
      <path id="Path_402" data-name="Path 402" d="M10.184,36.293,5.207,31.278,0,36.465l5,5,5.168,5.207L15.353,41.5l11.92-11.843L22.1,24.45Z" transform="translate(0 -24.45)"/>
    </g>
  </g>
</svg>
