<svg id="target_1_" data-name="target (1)" xmlns="http://www.w3.org/2000/svg" width="100.005" height="100.005" viewBox="0 0 100.005 100.005">
  <path id="Path_403" data-name="Path 403" d="M98.338,48.336H94.963A45.048,45.048,0,0,0,51.669,5.042V1.667a1.667,1.667,0,0,0-3.333,0V5.042A45.048,45.048,0,0,0,5.042,48.336H1.667a1.667,1.667,0,0,0,0,3.333H5.042A45.048,45.048,0,0,0,48.336,94.963v3.375a1.667,1.667,0,0,0,3.333,0V94.963A45.048,45.048,0,0,0,94.963,51.669h3.375a1.667,1.667,0,0,0,0-3.333ZM51.669,91.629V88.338a1.667,1.667,0,0,0-3.333,0v3.292a41.716,41.716,0,0,1-39.96-39.96h3.292a1.667,1.667,0,0,0,0-3.333H8.375a41.716,41.716,0,0,1,39.96-39.96v3.292a1.667,1.667,0,0,0,3.333,0V8.375a41.716,41.716,0,0,1,39.96,39.96H88.338a1.667,1.667,0,0,0,0,3.333h3.292A41.716,41.716,0,0,1,51.669,91.629Z"/>
  <path id="Path_404" data-name="Path 404" d="M58.669,37H50.2a11.675,11.675,0,0,0-9.867-9.867V18.667a1.667,1.667,0,1,0-3.333,0v8.467A11.677,11.677,0,0,0,27.134,37H18.667a1.667,1.667,0,1,0,0,3.333h8.467A11.675,11.675,0,0,0,37,50.2v8.467a1.667,1.667,0,1,0,3.333,0V50.2A11.677,11.677,0,0,0,50.2,40.334h8.467a1.667,1.667,0,1,0,0-3.333Zm-20,10A8.334,8.334,0,1,1,47,38.668,8.343,8.343,0,0,1,38.668,47Z" transform="translate(11.335 11.335)"/>
</svg>
