<svg xmlns="http://www.w3.org/2000/svg" width="35.001" height="35.001" viewBox="0 0 35.001 35.001">
  <g id="user_1_" data-name="user (1)" transform="translate(-0.001)">
    <g id="Group_6293" data-name="Group 6293" transform="translate(0.001)">
      <path id="Path_382" data-name="Path 382" d="M17.5,0A17.5,17.5,0,1,0,35,17.5,17.5,17.5,0,0,0,17.5,0Zm.053,25.757H9.972c0-5.467,4.8-5.465,5.867-6.895l.122-.652a5.225,5.225,0,0,1-2.554-4.727c0-2.818,1.833-5.1,4.094-5.1s4.094,2.285,4.094,5.1a5.243,5.243,0,0,1-2.515,4.709l.139.741c1.169,1.36,5.81,1.449,5.81,6.824Z" transform="translate(-0.001)" fill="#00aee0"/>
    </g>
  </g>
</svg>
