<svg xmlns="http://www.w3.org/2000/svg" xmlns:xlink="http://www.w3.org/1999/xlink" width="50" height="50" viewBox="0 0 50 50">
  <defs>
    <clipPath id="clip-path">
      <circle id="Ellipse_6" data-name="Ellipse 6" cx="25" cy="25" r="25" transform="translate(1360 4416)" fill="#00aee0"/>
    </clipPath>
  </defs>
  <g id="Mask_Group_5" data-name="Mask Group 5" transform="translate(-1360 -4416)" clip-path="url(#clip-path)">
    <g id="youtube_2_" data-name="youtube (2)" transform="translate(1360 4416)">
      <path id="Path_9" data-name="Path 9" d="M21.886,29.684,30.018,25l-8.132-4.684Zm0,0" fill="#00aee0"/>
      <path id="Path_10" data-name="Path 10" d="M25,0A25,25,0,1,0,50,25,25,25,0,0,0,25,0ZM40.621,25.026a41.262,41.262,0,0,1-.643,7.515,3.915,3.915,0,0,1-2.754,2.753c-2.445.644-12.224.644-12.224.644s-9.754,0-12.224-.669a3.915,3.915,0,0,1-2.754-2.754A41.08,41.08,0,0,1,9.378,25a41.235,41.235,0,0,1,.644-7.515,3.994,3.994,0,0,1,2.754-2.779C15.221,14.063,25,14.063,25,14.063s9.779,0,12.224.669a3.915,3.915,0,0,1,2.754,2.754,39.156,39.156,0,0,1,.643,7.54Zm0,0" fill="#00aee0"/>
    </g>
  </g>
</svg>
